<svg width="50" height="50" viewBox="0 0 50 50" fill="none" xmlns="http://www.w3.org/2000/svg">
<path d="M25 3.125C19.2202 3.19513 13.6968 5.52233 9.60958 9.60958C5.52233 13.6968 3.19513 19.2202 3.125 25C3.19513 30.7798 5.52233 36.3032 9.60958 40.3904C13.6968 44.4777 19.2202 46.8049 25 46.875C30.7798 46.8049 36.3032 44.4777 40.3904 40.3904C44.4777 36.3032 46.8049 30.7798 46.875 25C46.8049 19.2202 44.4777 13.6968 40.3904 9.60958C36.3032 5.52233 30.7798 3.19513 25 3.125ZM37.5 26.5625H26.5625V37.5H23.4375V26.5625H12.5V23.4375H23.4375V12.5H26.5625V23.4375H37.5V26.5625Z" fill="#C6C6C6"/>
</svg>
