<svg width="16" height="16" viewBox="0 0 16 16" fill="none" xmlns="http://www.w3.org/2000/svg">
<path d="M13.0691 5.65691L8.38405 10.2679C8.28183 10.369 8.14384 10.4258 8.00005 10.4258C7.85626 10.4258 7.71827 10.369 7.61605 10.2679L2.93005 5.65791C2.82695 5.55731 2.6886 5.501 2.54455 5.501C2.4005 5.501 2.26215 5.55731 2.15905 5.65791C2.1084 5.70729 2.06815 5.76631 2.04067 5.83148C2.01318 5.89666 1.99902 5.96668 1.99902 6.03741C1.99902 6.10815 2.01318 6.17817 2.04067 6.24334C2.06815 6.30852 2.1084 6.36754 2.15905 6.41691L6.84305 11.0269C7.15157 11.3298 7.56667 11.4996 7.99905 11.4996C8.43143 11.4996 8.84653 11.3298 9.15505 11.0269L13.8391 6.41691C13.8899 6.36752 13.9302 6.30844 13.9578 6.24317C13.9854 6.1779 13.9996 6.10777 13.9996 6.03691C13.9996 5.96606 13.9854 5.89592 13.9578 5.83065C13.9302 5.76538 13.8899 5.70631 13.8391 5.65691C13.7359 5.55631 13.5976 5.5 13.4536 5.5C13.3095 5.5 13.1712 5.55631 13.0681 5.65691" fill="black"/>
</svg>
