<svg width="12" height="12" viewBox="0 0 12 12" fill="none" xmlns="http://www.w3.org/2000/svg">
<path fill-rule="evenodd" clip-rule="evenodd" d="M8.50002 4.50011C8.59889 4.50013 8.69554 4.52946 8.77774 4.58441C8.85995 4.63935 8.92402 4.71743 8.96185 4.80878C8.99969 4.90013 9.00959 5.00065 8.99031 5.09762C8.97102 5.1946 8.92342 5.28368 8.85352 5.35361L6.35352 7.85361C6.25975 7.94734 6.1326 8 6.00002 8C5.86743 8 5.74028 7.94734 5.64652 7.85361L3.14652 5.35361C3.07661 5.28368 3.02901 5.1946 3.00972 5.09762C2.99044 5.00065 3.00034 4.90013 3.03818 4.80878C3.07601 4.71743 3.14008 4.63935 3.22229 4.58441C3.30449 4.52946 3.40114 4.50013 3.50002 4.50011H8.50002Z" fill="black"/>
</svg>
