<svg width="16" height="17" viewBox="0 0 16 17" fill="none" xmlns="http://www.w3.org/2000/svg">
<path d="M5.33329 12.4997H10.6666V11.1663H5.33329V12.4997ZM5.33329 9.83301H10.6666V8.49967H5.33329V9.83301ZM3.99996 15.1663C3.63329 15.1663 3.31951 15.0359 3.05863 14.775C2.79774 14.5141 2.66707 14.2001 2.66663 13.833V3.16634C2.66663 2.79967 2.79729 2.4859 3.05863 2.22501C3.31996 1.96412 3.63374 1.83345 3.99996 1.83301H9.33329L13.3333 5.83301V13.833C13.3333 14.1997 13.2028 14.5137 12.942 14.775C12.6811 15.0363 12.3671 15.1668 12 15.1663H3.99996ZM8.66663 6.49967H12L8.66663 3.16634V6.49967Z" fill="#C6C6C6"/>
</svg>
