<svg width="12" height="12" viewBox="0 0 12 12" fill="none" xmlns="http://www.w3.org/2000/svg">
<path fill-rule="evenodd" clip-rule="evenodd" d="M8.50002 7.49989C8.59889 7.49987 8.69554 7.47054 8.77774 7.41559C8.85995 7.36065 8.92402 7.28257 8.96185 7.19122C8.99969 7.09987 9.00959 6.99935 8.99031 6.90238C8.97102 6.8054 8.92342 6.71632 8.85352 6.64639L6.35352 4.14639C6.25975 4.05266 6.1326 4 6.00002 4C5.86743 4 5.74028 4.05266 5.64652 4.14639L3.14652 6.64639C3.07661 6.71632 3.02901 6.8054 3.00972 6.90238C2.99044 6.99935 3.00034 7.09987 3.03818 7.19122C3.07601 7.28257 3.14008 7.36065 3.22229 7.41559C3.30449 7.47054 3.40114 7.49987 3.50002 7.49989H8.50002Z" fill="black"/>
</svg>
