<svg width="40" height="40" viewBox="0 0 40 40" fill="none" xmlns="http://www.w3.org/2000/svg">
<path d="M11.6667 15.0003V11.667H35V15.0003H11.6667ZM11.6667 21.667V18.3337H35V21.667H11.6667ZM11.6667 28.3337V25.0003H35V28.3337H11.6667ZM6.66667 15.0003C6.19444 15.0003 5.79889 14.8403 5.48 14.5203C5.16111 14.2003 5.00111 13.8048 5 13.3337C5 12.8614 5.16 12.4659 5.48 12.147C5.8 11.8281 6.19556 11.6681 6.66667 11.667C7.13889 11.667 7.535 11.827 7.855 12.147C8.175 12.467 8.33444 12.8625 8.33333 13.3337C8.33333 13.8059 8.17333 14.202 7.85333 14.522C7.53333 14.842 7.13778 15.0014 6.66667 15.0003ZM6.66667 21.667C6.19444 21.667 5.79889 21.507 5.48 21.187C5.16111 20.867 5.00111 20.4714 5 20.0003C5 19.5281 5.16 19.1325 5.48 18.8137C5.8 18.4948 6.19556 18.3348 6.66667 18.3337C7.13889 18.3337 7.535 18.4937 7.855 18.8137C8.175 19.1337 8.33444 19.5292 8.33333 20.0003C8.33333 20.4725 8.17333 20.8687 7.85333 21.1887C7.53333 21.5087 7.13778 21.6681 6.66667 21.667ZM6.66667 28.3337C6.19444 28.3337 5.79889 28.1737 5.48 27.8537C5.16111 27.5337 5.00111 27.1381 5 26.667C5 26.1948 5.16 25.7992 5.48 25.4803C5.8 25.1614 6.19556 25.0014 6.66667 25.0003C7.13889 25.0003 7.535 25.1603 7.855 25.4803C8.175 25.8003 8.33444 26.1959 8.33333 26.667C8.33333 27.1392 8.17333 27.5353 7.85333 27.8553C7.53333 28.1753 7.13778 28.3348 6.66667 28.3337Z" fill="#C6C6C6"/>
</svg>
