<svg width="16" height="16" viewBox="0 0 16 16" fill="none" xmlns="http://www.w3.org/2000/svg">
<g clip-path="url(#clip0_765_903)">
<path fill-rule="evenodd" clip-rule="evenodd" d="M7.99996 0.935547C6.12633 0.935547 4.32944 1.67984 3.00458 3.0047C1.67972 4.32956 0.935425 6.12645 0.935425 8.00008C0.935425 9.87371 1.67972 11.6706 3.00458 12.9955C4.32944 14.3203 6.12633 15.0646 7.99996 15.0646C9.87359 15.0646 11.6705 14.3203 12.9953 12.9955C14.3202 11.6706 15.0645 9.87371 15.0645 8.00008C15.0645 6.12645 14.3202 4.32956 12.9953 3.0047C11.6705 1.67984 9.87359 0.935547 7.99996 0.935547ZM1.94876 8.00008C1.94876 6.3952 2.58629 4.85606 3.72111 3.72124C4.85593 2.58642 6.39508 1.94888 7.99996 1.94888C9.60484 1.94888 11.144 2.58642 12.2788 3.72124C13.4136 4.85606 14.0512 6.3952 14.0512 8.00008C14.0512 9.60496 13.4136 11.1441 12.2788 12.2789C11.144 13.4137 9.60484 14.0513 7.99996 14.0513C6.39508 14.0513 4.85593 13.4137 3.72111 12.2789C2.58629 11.1441 1.94876 9.60496 1.94876 8.00008ZM7.99996 10.1334C8.56575 10.1334 9.10838 9.90865 9.50845 9.50857C9.90853 9.1085 10.1333 8.56588 10.1333 8.00008C10.1333 7.43429 9.90853 6.89166 9.50845 6.49159C9.10838 6.09151 8.56575 5.86675 7.99996 5.86675C7.43416 5.86675 6.89154 6.09151 6.49146 6.49159C6.09139 6.89166 5.86663 7.43429 5.86663 8.00008C5.86663 8.56588 6.09139 9.1085 6.49146 9.50857C6.89154 9.90865 7.43416 10.1334 7.99996 10.1334Z" fill="#C6C6C6"/>
</g>
<defs>
<clipPath id="clip0_765_903">
<rect width="16" height="16" fill="white"/>
</clipPath>
</defs>
</svg>
