<svg width="40" height="40" viewBox="0 0 40 40" fill="none" xmlns="http://www.w3.org/2000/svg">
<path d="M35 11.6667V31.6667C35 32.5833 34.6739 33.3683 34.0217 34.0217C33.3694 34.675 32.5844 35.0011 31.6667 35H8.33333C7.41667 35 6.63222 34.6739 5.98 34.0217C5.32778 33.3694 5.00111 32.5844 5 31.6667V8.33333C5 7.41667 5.32667 6.63222 5.98 5.98C6.63333 5.32778 7.41778 5.00111 8.33333 5H28.3333L35 11.6667ZM20 30C21.3889 30 22.5694 29.5139 23.5417 28.5417C24.5139 27.5694 25 26.3889 25 25C25 23.6111 24.5139 22.4306 23.5417 21.4583C22.5694 20.4861 21.3889 20 20 20C18.6111 20 17.4306 20.4861 16.4583 21.4583C15.4861 22.4306 15 23.6111 15 25C15 26.3889 15.4861 27.5694 16.4583 28.5417C17.4306 29.5139 18.6111 30 20 30ZM10 16.6667H25V10H10V16.6667Z" fill="#C6C6C6"/>
</svg>
