<svg width="40" height="40" viewBox="0 0 40 40" fill="none" xmlns="http://www.w3.org/2000/svg">
<path d="M6.66669 30.642V9.35866C6.66669 8.61866 6.93058 7.98533 7.45835 7.45866C7.98502 6.93088 8.61835 6.66699 9.35835 6.66699H30.6417C31.3817 6.66699 32.015 6.93088 32.5417 7.45866C33.0695 7.98533 33.3334 8.61866 33.3334 9.35866V30.642C33.3334 31.382 33.0695 32.0153 32.5417 32.542C32.015 33.0698 31.3817 33.3337 30.6417 33.3337H9.35835C8.61835 33.3337 7.98502 33.0698 7.45835 32.542C6.93058 32.0153 6.66669 31.382 6.66669 30.642ZM8.33335 15.257H31.6667V9.35866C31.6667 9.05977 31.5706 8.81421 31.3784 8.62199C31.1861 8.42977 30.9406 8.33366 30.6417 8.33366H9.35835C9.05946 8.33366 8.81391 8.42977 8.62169 8.62199C8.42946 8.81421 8.33335 9.05977 8.33335 9.35866V15.257ZM16.6634 23.462H23.3367V16.9237H16.6634V23.462ZM16.6634 31.667H23.3367V25.1287H16.6634V31.667ZM8.33335 23.462H14.9967V16.9237H8.33335V23.462ZM25.0034 23.462H31.6667V16.9237H25.0034V23.462ZM9.35835 31.667H14.9967V25.1287H8.33335V30.642C8.33335 30.9409 8.42946 31.1864 8.62169 31.3787C8.81391 31.5709 9.05946 31.667 9.35835 31.667ZM25.0034 31.667H30.6417C30.9406 31.667 31.1861 31.5709 31.3784 31.3787C31.5706 31.1864 31.6667 30.9409 31.6667 30.642V25.1287H25.0034V31.667Z" fill="#C6C6C6"/>
</svg>
